<svg xmlns="http://www.w3.org/2000/svg" width="75" height="72" viewBox="0 0 75 72"><g fill="#81B3D2"><path d="M29.656 65.033h16V41.21h-16v23.823zm2.937-20.899h10.125V62.11H32.593V44.134z"/><path d="M72.771 39.253l2.076-2.068-9.908-9.865V0H51.127v13.567L37.5 0 .152 37.185l2.077 2.068 7.832-7.795v37.618H6.124V72h63.875v-2.924H64.94V31.458l7.831 7.795zM62.002 69.076H12.999V28.534L37.5 4.149l24.502 24.385v40.542zm0-44.682l-7.938-7.902V2.924h7.938v21.47z"/><path d="M29.906 27.08c0 4.261 3.47 7.713 7.75 7.713 4.279 0 7.75-3.452 7.75-7.713 0-4.259-3.471-7.713-7.75-7.713-4.281 0-7.75 3.454-7.75 7.713zm7.75-4.945c2.744 0 4.969 2.214 4.969 4.945 0 2.732-2.225 4.948-4.969 4.948-2.746 0-4.97-2.216-4.97-4.948 0-2.731 2.225-4.945 4.97-4.945zM17.061 41.21h3v3.919h-3zM22.999 41.21h3v3.919h-3zM17.061 47.182h3v3.919h-3zM22.999 47.182h3v3.919h-3zM48.998 41.21h3v3.919h-3zM54.936 41.21h3v3.919h-3zM48.998 47.182h3v3.919h-3zM54.936 47.182h3v3.919h-3z"/></g></svg>